<svg xmlns="http://www.w3.org/2000/svg" version="1.1" xmlns:xlink="http://www.w3.org/1999/xlink" xmlns:svgjs="http://svgjs.com/svgjs" width="512" height="512" x="0" y="0" viewBox="0 0 512 512" style="enable-background:new 0 0 512 512" xml:space="preserve" class=""><g><script></script><linearGradient xmlns="http://www.w3.org/2000/svg" id="SVGID_1_" gradientUnits="userSpaceOnUse" x1="0" y1="258.0005" x2="511.9998" y2="258.0005" gradientTransform="matrix(1 0 0 -1 0 514.0004)"><stop stop-opacity="1" stop-color="#512da8" offset="0"></stop><stop stop-opacity="1" stop-color="#304ffe" offset="1"></stop></linearGradient><path xmlns="http://www.w3.org/2000/svg" style="fill:url(#SVGID_1_);" d="M509.293,450.357l-54.486-94.373h37.168c11.045,0,19.998-8.953,19.998-19.998  c0-11.045-8.953-19.998-19.998-19.998h-60.259l-23.092-39.996h83.351c11.045,0,19.998-8.953,19.998-19.998  s-8.953-19.998-19.998-19.998H385.531L362.439,196h129.535c11.045,0,19.998-8.953,19.998-19.998s-8.953-19.998-19.998-19.998  H339.348L273.316,41.632c-7.679-13.302-26.943-13.329-34.637,0L126.462,235.996H20.019c-11.045,0-19.998,8.953-19.998,19.998  s8.953,19.998,19.998,19.998h83.351L2.701,450.357c-7.669,13.281,1.899,29.997,17.319,29.997h471.955  C507.311,480.354,517.004,463.71,509.293,450.357z M54.657,440.358l201.34-348.73l201.34,348.73H54.657z" fill=""></path><g xmlns="http://www.w3.org/2000/svg"></g><g xmlns="http://www.w3.org/2000/svg"></g><g xmlns="http://www.w3.org/2000/svg"></g><g xmlns="http://www.w3.org/2000/svg"></g><g xmlns="http://www.w3.org/2000/svg"></g><g xmlns="http://www.w3.org/2000/svg"></g><g xmlns="http://www.w3.org/2000/svg"></g><g xmlns="http://www.w3.org/2000/svg"></g><g xmlns="http://www.w3.org/2000/svg"></g><g xmlns="http://www.w3.org/2000/svg"></g><g xmlns="http://www.w3.org/2000/svg"></g><g xmlns="http://www.w3.org/2000/svg"></g><g xmlns="http://www.w3.org/2000/svg"></g><g xmlns="http://www.w3.org/2000/svg"></g><g xmlns="http://www.w3.org/2000/svg"></g></g></svg>